# This file uses centimeters as units for non-parametric coordinates.

mtllib Corner Wall.mtl
g default
v -0.351799 -0.500000 0.248809
v 0.351799 -0.500000 0.248809
v -0.351799 0.500000 0.248809
v 0.351799 0.500000 0.248809
v -0.351799 0.500000 -0.246032
v 0.351799 0.500000 -0.246032
v -0.351799 -0.500000 -0.246032
v 0.351799 -0.500000 -0.246032
v -0.351799 0.835616 0.248809
v 0.351799 0.835616 0.248809
v 0.351799 0.835616 -0.246032
v -0.351799 0.835616 -0.246032
v -0.351799 0.500000 0.420676
v 0.351799 0.500000 0.420676
v 0.351799 0.835616 0.420676
v -0.351799 0.835616 0.420676
v -0.351799 0.500000 -0.417899
v 0.351799 0.500000 -0.417899
v -0.351799 0.835616 -0.417899
v 0.351799 0.835616 -0.417899
vt 0.375000 0.000000
vt 0.625000 0.000000
vt 0.375000 0.250000
vt 0.625000 0.250000
vt 0.375000 0.500000
vt 0.625000 0.500000
vt 0.375000 0.750000
vt 0.625000 0.750000
vt 0.375000 1.000000
vt 0.625000 1.000000
vt 0.875000 0.000000
vt 0.875000 0.250000
vt 0.125000 0.000000
vt 0.125000 0.250000
vt 0.375000 0.250000
vt 0.625000 0.250000
vt 0.625000 0.500000
vt 0.375000 0.500000
vt 0.375000 0.250000
vt 0.625000 0.250000
vt 0.625000 0.250000
vt 0.375000 0.250000
vt 0.625000 0.500000
vt 0.375000 0.500000
vt 0.375000 0.500000
vt 0.625000 0.500000
vn 0.000000 0.000000 1.000000
vn 0.000000 0.000000 1.000000
vn 0.000000 0.000000 1.000000
vn 0.000000 0.000000 1.000000
vn 0.000000 0.000000 -1.000000
vn 0.000000 0.000000 -1.000000
vn 0.000000 0.000000 -1.000000
vn 0.000000 0.000000 -1.000000
vn 0.000000 -1.000000 0.000000
vn 0.000000 -1.000000 0.000000
vn 0.000000 -1.000000 0.000000
vn 0.000000 -1.000000 0.000000
vn 1.000000 0.000000 0.000000
vn 1.000000 0.000000 0.000000
vn 1.000000 0.000000 0.000000
vn 1.000000 0.000000 0.000000
vn -1.000000 0.000000 0.000000
vn -1.000000 0.000000 0.000000
vn -1.000000 0.000000 0.000000
vn -1.000000 0.000000 0.000000
vn 0.000000 0.000000 1.000000
vn 0.000000 0.000000 1.000000
vn 0.000000 0.000000 1.000000
vn 0.000000 0.000000 1.000000
vn 1.000000 0.000000 0.000000
vn 1.000000 0.000000 0.000000
vn 0.000000 0.000000 -1.000000
vn 0.000000 0.000000 -1.000000
vn 0.000000 0.000000 -1.000000
vn 0.000000 0.000000 -1.000000
vn 0.000000 -1.000000 0.000000
vn 0.000000 -1.000000 0.000000
vn 0.000000 -1.000000 0.000000
vn 0.000000 -1.000000 0.000000
vn 1.000000 0.000000 0.000000
vn 1.000000 0.000000 0.000000
vn 0.000000 -1.000000 0.000000
vn 0.000000 -1.000000 0.000000
vn 0.000000 -1.000000 0.000000
vn 0.000000 -1.000000 0.000000
vn -1.000000 0.000000 0.000000
vn -1.000000 0.000000 0.000000
vn -1.000000 0.000000 0.000000
vn -1.000000 0.000000 0.000000
vn -1.000000 0.000000 0.000000
vn -1.000000 0.000000 0.000000
vn 0.000000 1.000000 0.000000
vn 0.000000 1.000000 0.000000
vn 0.000000 1.000000 0.000000
vn 0.000000 1.000000 0.000000
vn 0.000000 1.000000 0.000000
vn 0.000000 1.000000 0.000000
vn 0.000000 1.000000 0.000000
vn 0.000000 1.000000 0.000000
vn 1.000000 0.000000 0.000000
vn 1.000000 0.000000 0.000000
s off
g pCube2
usemtl initialShadingGroup
f 1/1/1 2/2/2 4/4/3 3/3/4
f 5/5/5 6/6/6 8/8/7 7/7/8
f 7/7/9 8/8/10 2/10/11 1/9/12
s 1
f 2/2/13 8/11/14 6/12/15 4/4/16
s 2
f 7/13/17 1/1/18 3/3/19 5/14/20
s off
f 13/19/21 14/20/22 15/21/23 16/22/24
s 1
f 4/4/16 6/6/15 11/17/25 10/16/26
s off
f 18/23/27 17/24/28 19/25/29 20/26/30
f 3/3/31 4/4/32 14/20/33 13/19/34
s 1
f 4/4/16 10/16/26 15/21/35 14/20/36
s off
f 6/6/37 5/5/38 17/24/39 18/23/40
s 2
f 12/18/41 19/25/42 17/24/43 5/5/20 3/3/19 13/19/44 16/22/45 9/15/46
s off
f 10/16/47 11/17/48 20/26/49 19/25/50 12/18/51 9/15/52 16/22/53 15/21/54
s 1
f 11/17/25 6/6/15 18/23/55 20/26/56
