# This file uses centimeters as units for non-parametric coordinates.

mtllib Enemy Ship.mtl
g default
v 0.251566 -0.206425 0.580438
v 0.251566 -0.261227 -0.580439
v 0.251271 0.182667 0.580010
v 0.251271 0.253292 -0.580012
v -0.251271 0.182667 0.580010
v -0.251271 0.253292 -0.580012
v -0.251566 -0.206425 0.580438
v -0.251566 -0.261227 -0.580439
v 0.331220 0.030526 0.581084
v -0.331220 0.030526 0.581084
v -0.301062 0.068852 -0.581086
v 0.301062 0.068852 -0.581086
v 0.331220 -0.081679 0.581084
v -0.331220 -0.081679 0.581084
v -0.301062 -0.081679 -0.581086
v 0.301062 -0.081679 -0.581086
v -1.583104 -0.001074 -0.423699
v -1.583104 0.037251 -0.889191
v -1.583104 -0.050078 -0.889191
v -1.583104 -0.050078 -0.423699
v 1.583104 -0.050078 -0.889191
v 1.583104 -0.050078 -0.423699
v 1.583104 0.037251 -0.889191
v 1.583104 -0.001074 -0.423699
v 0.223923 -0.223923 -0.581086
v 0.223923 -0.060751 -0.581086
v -0.223923 -0.223923 -0.581086
v -0.223923 -0.060751 -0.581086
v -0.223923 0.051210 -0.581086
v -0.223923 0.223923 -0.581086
v 0.223923 0.223923 -0.581086
v 0.223923 0.051210 -0.581086
v 0.298724 -0.298724 -0.876118
v 0.298724 -0.081045 -0.876118
v -0.298724 -0.298724 -0.876118
v -0.298724 -0.081045 -0.876118
v -0.298724 0.068317 -0.876118
v -0.298724 0.298724 -0.876118
v 0.298724 0.298724 -0.876118
v 0.298724 0.068317 -0.876118
v 0.217791 -0.217791 -0.751962
v 0.217791 -0.059087 -0.751962
v -0.217791 -0.217791 -0.751962
v -0.217791 -0.059087 -0.751962
v -0.217791 0.049808 -0.751962
v -0.217791 0.217791 -0.751962
v 0.217791 0.217791 -0.751962
v 0.217791 0.049808 -0.751962
v -0.090922 -0.091075 1.592919
v -0.060764 -0.135353 1.592919
v 0.060764 -0.135353 1.592919
v 0.090922 -0.091075 1.592919
v 0.090922 -0.060693 1.592919
v 0.060764 -0.013826 1.592919
v -0.060764 -0.013826 1.592919
v -0.090922 -0.060693 1.592919
v -1.639373 -0.001074 -0.423699
v -1.639373 0.037251 -0.889191
v -1.639373 -0.050078 -0.889191
v -1.639373 -0.050078 -0.423699
v 1.639373 -0.050078 -0.889191
v 1.639373 -0.050078 -0.423699
v 1.639373 0.037251 -0.889191
v 1.639373 -0.001074 -0.423699
v -1.595168 0.032654 -0.426206
v -1.595168 0.168422 -0.873107
v -1.627308 0.168422 -0.873107
v -1.627308 0.032654 -0.426206
v 1.595168 0.168422 -0.873107
v 1.595168 0.032654 -0.426206
v 1.627308 0.032654 -0.426206
v 1.627308 0.168422 -0.873107
v 0.000000 -0.217791 -0.751962
v 0.000000 -0.298724 -0.876118
v 0.000000 -0.223923 -0.581086
v 0.000000 -0.335029 -0.580439
v 0.000000 -0.280228 0.580438
v 0.000000 -0.135353 1.592919
v -0.038538 -0.086579 1.688182
v -0.025755 -0.105347 1.688182
v 0.000000 -0.105347 1.688182
v 0.025755 -0.105347 1.688182
v 0.038538 -0.086579 1.688182
v 0.038538 -0.073701 1.688182
v 0.025755 -0.053836 1.688182
v -0.025755 -0.053836 1.688182
v -0.038538 -0.073701 1.688182
v 0.000000 0.217791 -0.751962
v 0.000000 0.298724 -0.876118
v 0.000000 0.223923 -0.581086
v 0.000000 0.330401 -0.580012
v 0.000000 0.219820 0.580010
v 0.000000 -0.013826 1.592919
v 0.000000 -0.053836 1.688182
vt 0.375000 0.000000
vt 0.625000 0.000000
vt 0.375000 0.250000
vt 0.625000 0.250000
vt 0.375000 0.500000
vt 0.625000 0.500000
vt 0.375000 0.750000
vt 0.625000 0.750000
vt 0.375000 1.000000
vt 0.625000 1.000000
vt 0.875000 0.000000
vt 0.875000 0.250000
vt 0.125000 0.000000
vt 0.125000 0.250000
vt 0.375000 0.125000
vt 0.125000 0.125000
vt 0.375000 0.625000
vt 0.625000 0.625000
vt 0.875000 0.125000
vt 0.625000 0.125000
vt 0.375000 0.062500
vt 0.125000 0.062500
vt 0.375000 0.687500
vt 0.625000 0.687500
vt 0.875000 0.062500
vt 0.625000 0.062500
vt 0.375000 0.625000
vt 0.625000 0.625000
vt 0.625000 0.687500
vt 0.375000 0.687500
vt 0.375000 0.062500
vt 0.625000 0.062500
vt 0.625000 0.125000
vt 0.375000 0.125000
vt 0.625000 0.062500
vt 0.625000 0.000000
vt 0.875000 0.000000
vt 0.875000 0.062500
vt 0.875000 0.125000
vt 0.875000 0.250000
vt 0.625000 0.250000
vt 0.625000 0.125000
vt 0.625000 0.062500
vt 0.625000 0.000000
vt 0.875000 0.000000
vt 0.875000 0.062500
vt 0.875000 0.125000
vt 0.875000 0.250000
vt 0.625000 0.250000
vt 0.625000 0.125000
vt 0.625000 0.062500
vt 0.625000 0.000000
vt 0.875000 0.000000
vt 0.875000 0.062500
vt 0.875000 0.125000
vt 0.875000 0.250000
vt 0.625000 0.250000
vt 0.625000 0.125000
vt 0.125000 0.062500
vt 0.125000 0.000000
vt 0.375000 0.000000
vt 0.375000 0.062500
vt 0.375000 0.125000
vt 0.375000 0.250000
vt 0.125000 0.250000
vt 0.125000 0.125000
vt 0.375000 0.625000
vt 0.625000 0.625000
vt 0.625000 0.687500
vt 0.375000 0.687500
vt 0.375000 0.062500
vt 0.625000 0.062500
vt 0.625000 0.125000
vt 0.375000 0.125000
vt 0.375000 0.625000
vt 0.625000 0.625000
vt 0.625000 0.625000
vt 0.375000 0.625000
vt 0.625000 0.125000
vt 0.375000 0.125000
vt 0.375000 0.125000
vt 0.625000 0.125000
vt 0.750000 0.000000
vt 0.750000 0.000000
vt 0.750000 0.000000
vt 0.625000 0.875000
vt 0.750000 0.000000
vt 0.250000 0.000000
vt 0.375000 0.875000
vt 0.250000 0.000000
vt 0.125000 0.062500
vt 0.125000 0.000000
vt 0.250000 0.000000
vt 0.375000 0.000000
vt 0.375000 0.062500
vt 0.375000 0.125000
vt 0.375000 0.250000
vt 0.125000 0.250000
vt 0.125000 0.125000
vt 0.750000 0.250000
vt 0.750000 0.250000
vt 0.750000 0.250000
vt 0.625000 0.375000
vt 0.750000 0.250000
vt 0.250000 0.250000
vt 0.375000 0.375000
vt 0.250000 0.250000
vt 0.250000 0.250000
vn 0.893184 -0.444838 0.065887
vn 0.920517 -0.390693 -0.002734
vn 0.920517 -0.390693 -0.002734
vn 0.930602 -0.352586 0.098304
vn 0.188705 0.974638 0.120297
vn 0.221070 0.972297 0.075941
vn 0.000000 0.996964 0.077868
vn 0.000000 0.991981 0.126388
vn -0.930602 -0.352586 0.098304
vn -0.920517 -0.390693 -0.002734
vn -0.920517 -0.390693 -0.002734
vn -0.893184 -0.444838 0.065887
vn -0.265167 -0.961681 0.069682
vn -0.281221 -0.958575 0.045252
vn 0.000000 -0.998888 0.047155
vn -0.000000 -0.997221 0.074497
vn 0.000000 0.000000 -1.000000
vn 0.000000 0.000000 -1.000000
vn 0.000000 0.000000 -1.000000
vn 0.000000 0.000000 -1.000000
vn 0.000000 0.000000 -1.000000
vn 0.000000 0.000000 -1.000000
vn 0.000000 0.000000 -1.000000
vn 0.000000 0.000000 -1.000000
vn 0.000000 0.000000 -1.000000
vn 0.000000 0.000000 -1.000000
vn 0.000000 0.000000 1.000000
vn 0.000000 0.000000 1.000000
vn 0.000000 0.000000 1.000000
vn 0.000000 0.000000 1.000000
vn 0.000000 0.000000 1.000000
vn 0.000000 0.000000 1.000000
vn 0.000000 0.000000 1.000000
vn 0.000000 0.000000 1.000000
vn 0.000000 0.000000 1.000000
vn 0.000000 0.000000 1.000000
vn -0.913077 0.398996 0.084218
vn -0.933070 0.359664 0.004757
vn -0.933070 0.359664 0.004757
vn -0.933773 0.337028 0.120331
vn 0.933773 0.337028 0.120331
vn 0.933070 0.359664 0.004757
vn 0.933070 0.359664 0.004757
vn 0.913077 0.398996 0.084218
vn -0.997414 0.070591 0.013469
vn -0.996321 0.084176 0.016061
vn -1.000000 0.000000 -0.000000
vn -1.000000 0.000000 -0.000000
vn 1.000000 0.000000 0.000000
vn 1.000000 0.000000 0.000000
vn 0.996321 0.084175 0.016061
vn 0.997414 0.070590 0.013469
vn -0.048763 0.997747 0.046083
vn -0.048763 0.997747 0.046083
vn -0.048763 0.997747 0.046083
vn -0.048763 0.997747 0.046083
vn 0.233671 0.000000 -0.972316
vn 0.233671 0.000000 -0.972316
vn 0.226859 0.000000 -0.973928
vn 0.219727 0.003953 -0.975553
vn -0.024697 -0.999695 -0.000458
vn -0.024697 -0.999695 -0.000458
vn -0.024211 -0.999707 -0.000449
vn -0.024041 -0.999711 -0.000445
vn -0.625939 0.000000 0.779872
vn -0.625939 0.000000 0.779872
vn -0.625939 0.000000 0.779872
vn -0.625939 0.000000 0.779872
vn 0.024697 -0.999695 -0.000458
vn 0.024697 -0.999695 -0.000458
vn 0.024041 -0.999711 -0.000445
vn 0.024211 -0.999707 -0.000449
vn -0.233671 0.000000 -0.972316
vn -0.233671 0.000000 -0.972316
vn -0.219727 0.003953 -0.975553
vn -0.226859 0.000000 -0.973928
vn 0.048763 0.997747 0.046083
vn 0.048763 0.997747 0.046083
vn 0.048763 0.997747 0.046083
vn 0.048763 0.997747 0.046083
vn 0.625939 0.000000 0.779872
vn 0.625939 0.000000 0.779872
vn 0.625939 0.000000 0.779872
vn 0.625939 0.000000 0.779872
vn 0.004738 -0.002570 -0.999985
vn 0.004738 -0.002570 -0.999985
vn 0.004738 -0.002570 -0.999985
vn 0.004738 -0.002570 -0.999985
vn 0.000000 -0.008463 -0.999964
vn -0.001314 -0.008462 -0.999963
vn -0.001314 -0.008462 -0.999963
vn 0.000000 -0.008463 -0.999964
vn -0.004738 -0.002569 -0.999985
vn -0.004738 -0.002569 -0.999985
vn -0.004738 -0.002569 -0.999985
vn -0.004738 -0.002569 -0.999985
vn 0.000000 0.000000 -1.000000
vn 0.000000 0.000000 -1.000000
vn 0.000000 0.000000 -1.000000
vn 0.000000 0.000000 -1.000000
vn -0.008399 0.004177 -0.999956
vn -0.008399 0.004177 -0.999956
vn -0.008399 0.004177 -0.999956
vn -0.008399 0.004177 -0.999956
vn 0.000000 0.015310 -0.999883
vn 0.002484 0.015310 -0.999880
vn 0.002484 0.015310 -0.999880
vn 0.000000 0.015310 -0.999883
vn 0.008399 0.004177 -0.999956
vn 0.008399 0.004177 -0.999956
vn 0.008399 0.004177 -0.999956
vn 0.008399 0.004177 -0.999956
vn 0.000000 0.000000 -1.000000
vn 0.000000 0.000000 -1.000000
vn 0.000000 0.000000 -1.000000
vn 0.000000 0.000000 -1.000000
vn 0.969331 0.000000 0.245760
vn 0.969331 0.000000 0.245760
vn 0.969331 0.000000 0.245760
vn 0.969331 0.000000 0.245760
vn 0.000000 -0.969331 0.245760
vn 0.000000 -0.969331 0.245760
vn 0.000000 -0.969331 0.245760
vn 0.000000 -0.969331 0.245760
vn -0.969331 0.000000 0.245760
vn -0.969331 0.000000 0.245760
vn -0.969331 0.000000 0.245760
vn -0.969331 0.000000 0.245760
vn -0.969331 0.000000 0.245760
vn -0.969331 0.000000 0.245760
vn -0.969331 0.000000 0.245760
vn -0.969331 0.000000 0.245760
vn 0.000000 0.969331 0.245760
vn 0.000000 0.969331 0.245760
vn 0.000000 0.969331 0.245760
vn 0.000000 0.969331 0.245760
vn 0.969331 0.000000 0.245760
vn 0.969331 0.000000 0.245760
vn 0.969331 0.000000 0.245760
vn 0.969331 0.000000 0.245760
vn -0.837727 0.000000 -0.546089
vn -0.837727 0.000000 -0.546089
vn -0.837727 0.000000 -0.546089
vn -0.837727 0.000000 -0.546089
vn 0.000000 0.837727 -0.546089
vn 0.000000 0.837727 -0.546089
vn 0.000000 0.837727 -0.546089
vn 0.000000 0.837727 -0.546089
vn 0.837727 0.000000 -0.546089
vn 0.837727 0.000000 -0.546089
vn 0.837727 0.000000 -0.546089
vn 0.837727 0.000000 -0.546089
vn 0.837727 0.000000 -0.546089
vn 0.837727 0.000000 -0.546089
vn 0.837727 0.000000 -0.546089
vn 0.837727 0.000000 -0.546089
vn 0.000000 -0.837727 -0.546089
vn 0.000000 -0.837727 -0.546089
vn 0.000000 -0.837727 -0.546089
vn 0.000000 -0.837727 -0.546089
vn -0.837727 0.000000 -0.546089
vn -0.837727 0.000000 -0.546089
vn -0.837727 0.000000 -0.546089
vn -0.837727 0.000000 -0.546089
vn -0.820751 -0.534815 0.200850
vn -0.912159 -0.344786 0.221559
vn 0.000000 -0.991189 0.132457
vn -0.225127 -0.966017 0.127000
vn 0.912159 -0.344786 0.221559
vn 0.820751 -0.534815 0.200850
vn 0.921152 0.294349 0.254633
vn 0.844998 0.470729 0.253756
vn 0.000000 0.974870 0.222776
vn 0.113709 0.968998 0.219346
vn -0.921152 0.294349 0.254633
vn -0.844998 0.470729 0.253756
vn 0.000000 0.956820 0.290680
vn 0.000000 0.956820 0.290680
vn 0.000000 0.956820 0.290680
vn 0.000000 0.956820 0.290680
vn 0.000000 0.000000 -1.000000
vn 0.000000 0.064405 -0.997924
vn 0.000000 -1.000000 0.000000
vn 0.000000 -1.000000 0.000000
vn 0.000000 0.000000 1.000000
vn 0.000000 0.022078 0.999756
vn 0.000000 0.022078 0.999756
vn 0.000000 0.000000 1.000000
vn 0.000000 -1.000000 0.000000
vn 0.000000 -1.000000 0.000000
vn 0.000000 0.064405 -0.997924
vn 0.000000 0.000000 -1.000000
vn 0.000000 0.956820 0.290680
vn 0.000000 0.956820 0.290680
vn 0.000000 0.956820 0.290680
vn 0.000000 0.956820 0.290680
vn 0.000000 0.022078 0.999756
vn 0.000000 0.000000 1.000000
vn 0.000000 0.000000 1.000000
vn 0.000000 0.022078 0.999756
vn 0.989416 0.142535 0.027198
vn 0.989416 0.142535 0.027198
vn 0.989416 0.142535 0.027198
vn 0.989416 0.142535 0.027198
vn 0.000000 0.121708 -0.992566
vn 0.000000 0.121708 -0.992566
vn -0.989416 0.142539 0.027197
vn -0.989416 0.142539 0.027197
vn 0.000000 0.074142 0.997248
vn 0.000000 0.074142 0.997248
vn -0.989416 0.142537 0.027198
vn -0.989416 0.142537 0.027198
vn -0.989416 0.142537 0.027198
vn -0.989416 0.142537 0.027198
vn 0.000000 0.074142 0.997248
vn 0.000000 0.074142 0.997248
vn 0.989416 0.142537 0.027197
vn 0.989416 0.142537 0.027197
vn 0.000000 0.121708 -0.992566
vn 0.000000 0.121708 -0.992566
vn 0.000000 0.837727 -0.546089
vn 0.000000 0.837727 -0.546089
vn 0.000000 -0.969331 0.245760
vn 0.000000 -0.969331 0.245760
vn 0.001314 -0.008463 -0.999963
vn 0.001314 -0.008463 -0.999963
vn 0.281221 -0.958575 0.045252
vn 0.265167 -0.961681 0.069682
vn 0.225127 -0.966017 0.127000
vn -0.744805 -0.507288 0.433502
vn -0.744805 -0.507288 0.433502
vn 0.000000 -0.953801 0.300438
vn 0.000000 -0.953801 0.300438
vn 0.000000 -0.953801 0.300438
vn 0.744805 -0.507288 0.433502
vn 0.744805 -0.507288 0.433502
vn 0.876258 0.000000 0.481843
vn 0.876258 0.000000 0.481843
vn 0.741088 0.476873 0.472631
vn 0.741088 0.476873 0.472631
vn 0.000000 0.921983 0.387231
vn 0.000000 0.921983 0.387231
vn -0.741088 0.476873 0.472631
vn -0.741088 0.476873 0.472631
vn -0.876258 0.000000 0.481843
vn -0.876258 0.000000 0.481843
vn 0.000000 -0.837727 -0.546089
vn 0.000000 -0.837727 -0.546089
vn 0.000000 0.969331 0.245760
vn 0.000000 0.969331 0.245760
vn -0.002484 0.015310 -0.999880
vn -0.002484 0.015310 -0.999880
vn -0.221070 0.972297 0.075941
vn -0.188705 0.974638 0.120297
vn -0.113709 0.968998 0.219346
vn 0.000000 0.921983 0.387231
s 1
g pCube1
usemtl initialShadingGroup
f 1/1/1 2/2/2 16/26/3 13/21/4
s 2
f 3/3/5 4/4/6 91/103/7 92/106/8
s 3
f 14/23/9 15/24/10 8/8/11 7/7/12
s 4
f 7/7/13 8/8/14 76/86/15 77/89/16
s off
f 42/51/17 41/52/18 73/83/19 43/53/20 44/54/21 45/55/22 46/56/23 88/100/24 47/57/25 48/58/26
f 79/91/27 80/92/28 81/93/29 82/94/30 83/95/31 84/96/32 85/97/33 94/108/34 86/98/35 87/99/36
s 3
f 5/5/37 6/6/38 11/18/39 10/17/40
s 1
f 9/15/41 12/20/42 4/4/43 3/3/44
s 7
f 57/67/45 58/68/46 59/69/47 60/70/48
s 8
f 62/71/49 61/72/50 63/73/51 64/74/52
s off
f 10/17/53 11/18/54 18/28/55 17/27/56
s 9
f 11/18/57 15/24/58 19/29/59 18/28/60
s 10
f 15/24/61 14/23/62 20/30/63 19/29/64
s off
f 14/23/65 10/17/66 17/27/67 20/30/68
s 11
f 13/21/69 16/26/70 21/32/71 22/31/72
s 12
f 16/26/73 12/20/74 23/33/75 21/32/76
s off
f 12/20/77 9/15/78 24/34/79 23/33/80
f 9/15/81 13/21/82 22/31/83 24/34/84
f 16/26/85 2/2/86 25/36/87 26/35/88
s 13
f 76/87/89 8/11/90 27/37/91 75/85/92
s off
f 8/11/93 15/25/94 28/38/95 27/37/96
f 15/25/97 11/19/98 29/39/99 28/38/100
f 11/19/101 6/12/102 30/40/103 29/39/104
s 14
f 91/104/105 4/4/106 31/41/107 90/102/108
s off
f 4/4/109 12/20/110 32/42/111 31/41/112
f 12/20/113 16/26/114 26/35/115 32/42/116
s 15
f 26/35/117 25/36/118 33/44/119 34/43/120
s 16
f 75/85/121 27/37/122 35/45/123 74/84/124
s 17
f 27/37/125 28/38/126 36/46/127 35/45/128
f 28/38/126 29/39/129 37/47/130 36/46/127
f 29/39/129 30/40/131 38/48/132 37/47/130
s 18
f 90/102/133 31/41/134 39/49/135 89/101/136
s 15
f 31/41/137 32/42/138 40/50/139 39/49/140
f 32/42/138 26/35/117 34/43/120 40/50/139
s 19
f 34/43/141 33/44/142 41/52/143 42/51/144
s 20
f 74/84/145 35/45/146 43/53/147 73/83/148
s 21
f 35/45/149 36/46/150 44/54/151 43/53/152
f 36/46/150 37/47/153 45/55/154 44/54/151
f 37/47/153 38/48/155 46/56/156 45/55/154
s 22
f 89/101/157 39/49/158 47/57/159 88/100/160
s 19
f 39/49/161 40/50/162 48/58/163 47/57/164
f 40/50/162 34/43/141 42/51/144 48/58/163
s 3
f 14/22/9 7/13/12 50/60/165 49/59/166
s 4
f 7/13/13 77/88/16 78/90/167 50/60/168
s 1
f 1/1/1 13/21/4 52/62/169 51/61/170
f 13/21/4 9/15/41 53/63/171 52/62/169
f 9/15/41 3/3/44 54/64/172 53/63/171
s 2
f 3/3/5 92/105/8 93/107/173 54/64/174
s 3
f 5/14/37 10/16/40 56/66/175 55/65/176
f 10/16/40 14/22/9 49/59/166 56/66/175
s off
f 65/75/177 66/76/178 67/77/179 68/78/180
s 9
f 18/28/60 19/29/59 59/69/181 58/68/182
s 10
f 19/29/64 20/30/63 60/70/183 59/69/184
s 23
f 20/30/185 17/27/186 57/67/187 60/70/188
s 11
f 22/31/72 21/32/71 61/72/189 62/71/190
s 12
f 21/32/76 23/33/75 63/73/191 61/72/192
s off
f 69/79/193 70/80/194 71/81/195 72/82/196
s 24
f 24/34/197 22/31/198 62/71/199 64/74/200
s off
f 17/27/201 18/28/202 66/76/203 65/75/204
s 9
f 18/28/60 58/68/182 67/77/205 66/76/206
s 7
f 58/68/46 57/67/45 68/78/207 67/77/208
s 23
f 57/67/187 17/27/186 65/75/209 68/78/210
s off
f 23/33/211 24/34/212 70/80/213 69/79/214
s 24
f 24/34/197 64/74/200 71/81/215 70/80/216
s 8
f 64/74/52 63/73/51 72/82/217 71/81/218
s 12
f 63/73/191 23/33/75 69/79/219 72/82/220
s 20
f 33/44/221 74/84/145 73/83/148 41/52/222
s 16
f 25/36/223 75/85/121 74/84/124 33/44/224
s 13
f 2/2/225 76/87/89 75/85/92 25/36/226
s 4
f 77/89/16 76/86/15 2/10/227 1/9/228
f 78/90/167 77/88/16 1/1/228 51/61/229
s 3
f 49/59/166 50/60/165 80/92/230 79/91/231
s 4
f 50/60/168 78/90/167 81/93/232 80/92/233
f 78/90/167 51/61/229 82/94/234 81/93/232
s 1
f 51/61/170 52/62/169 83/95/235 82/94/236
f 52/62/169 53/63/171 84/96/237 83/95/238
f 53/63/171 54/64/172 85/97/239 84/96/240
s 2
f 54/64/174 93/107/173 94/108/241 85/97/242
s 3
f 55/65/176 56/66/175 87/99/243 86/98/244
f 56/66/175 49/59/166 79/91/245 87/99/246
s 22
f 38/48/247 89/101/157 88/100/160 46/56/248
s 18
f 30/40/249 90/102/133 89/101/136 38/48/250
s 14
f 6/12/251 91/104/105 90/102/108 30/40/252
s 2
f 92/106/8 91/103/7 6/6/253 5/5/254
f 93/107/173 92/105/8 5/14/254 55/65/255
f 94/108/241 93/107/173 55/65/255 86/98/256
