# This file uses centimeters as units for non-parametric coordinates.

mtllib Wall.mtl
g default
v -2.967223 -0.500000 0.247421
v 2.967223 -0.500000 0.247421
v -2.967223 0.500000 0.247421
v 2.967223 0.500000 0.247421
v -2.967223 0.500000 -0.247421
v 2.967223 0.500000 -0.247421
v -2.967223 -0.500000 -0.247421
v 2.967223 -0.500000 -0.247421
v -2.967223 0.835616 0.247421
v 2.967223 0.835616 0.247421
v 2.967223 0.835616 -0.247421
v -2.967223 0.835616 -0.247421
v -2.967223 0.500000 0.419287
v 2.967223 0.500000 0.419287
v 2.967223 0.835616 0.419287
v -2.967223 0.835616 0.419287
v -2.967223 0.500000 -0.419287
v 2.967223 0.500000 -0.419287
v -2.967223 0.835616 -0.419287
v 2.967223 0.835616 -0.419287
vt 0.375000 0.000000
vt 0.625000 0.000000
vt 0.375000 0.250000
vt 0.625000 0.250000
vt 0.375000 0.500000
vt 0.625000 0.500000
vt 0.375000 0.750000
vt 0.625000 0.750000
vt 0.375000 1.000000
vt 0.625000 1.000000
vt 0.875000 0.000000
vt 0.875000 0.250000
vt 0.125000 0.000000
vt 0.125000 0.250000
vt 0.375000 0.250000
vt 0.625000 0.250000
vt 0.625000 0.500000
vt 0.375000 0.500000
vt 0.375000 0.250000
vt 0.625000 0.250000
vt 0.625000 0.250000
vt 0.375000 0.250000
vt 0.625000 0.500000
vt 0.375000 0.500000
vt 0.375000 0.500000
vt 0.625000 0.500000
vn 0.000000 0.000000 1.000000
vn 0.000000 0.000000 1.000000
vn 0.000000 0.000000 1.000000
vn 0.000000 0.000000 1.000000
vn 0.000000 1.000000 0.000000
vn 0.000000 1.000000 0.000000
vn 0.000000 1.000000 0.000000
vn 0.000000 1.000000 0.000000
vn 0.000000 0.000000 -1.000000
vn 0.000000 0.000000 -1.000000
vn 0.000000 0.000000 -1.000000
vn 0.000000 0.000000 -1.000000
vn 0.000000 -1.000000 0.000000
vn 0.000000 -1.000000 0.000000
vn 0.000000 -1.000000 0.000000
vn 0.000000 -1.000000 0.000000
vn 1.000000 0.000000 0.000000
vn 1.000000 0.000000 0.000000
vn 1.000000 0.000000 0.000000
vn 1.000000 0.000000 0.000000
vn -1.000000 0.000000 0.000000
vn -1.000000 0.000000 0.000000
vn -1.000000 0.000000 0.000000
vn -1.000000 0.000000 0.000000
vn 0.000000 0.000000 1.000000
vn 0.000000 0.000000 1.000000
vn 0.000000 0.000000 1.000000
vn 0.000000 0.000000 1.000000
vn 1.000000 0.000000 0.000000
vn 1.000000 0.000000 0.000000
vn 0.000000 0.000000 -1.000000
vn 0.000000 0.000000 -1.000000
vn 0.000000 0.000000 -1.000000
vn 0.000000 0.000000 -1.000000
vn -1.000000 0.000000 0.000000
vn -1.000000 0.000000 0.000000
vn 0.000000 -1.000000 0.000000
vn 0.000000 -1.000000 0.000000
vn 0.000000 -1.000000 0.000000
vn 0.000000 -1.000000 0.000000
vn 1.000000 0.000000 0.000000
vn 1.000000 0.000000 0.000000
vn 0.000000 1.000000 0.000000
vn 0.000000 1.000000 0.000000
vn -1.000000 0.000000 0.000000
vn -1.000000 0.000000 0.000000
vn 0.000000 -1.000000 0.000000
vn 0.000000 -1.000000 0.000000
vn 0.000000 -1.000000 0.000000
vn 0.000000 -1.000000 0.000000
vn -1.000000 0.000000 0.000000
vn -1.000000 0.000000 0.000000
vn 0.000000 1.000000 0.000000
vn 0.000000 1.000000 0.000000
vn 1.000000 0.000000 0.000000
vn 1.000000 0.000000 0.000000
s off
g pCube1
usemtl initialShadingGroup
f 1/1/1 2/2/2 4/4/3 3/3/4
s 1
f 9/15/5 10/16/6 11/17/7 12/18/8
s off
f 5/5/9 6/6/10 8/8/11 7/7/12
f 7/7/13 8/8/14 2/10/15 1/9/16
s 2
f 2/2/17 8/11/18 6/12/19 4/4/20
s 3
f 7/13/21 1/1/22 3/3/23 5/14/24
s off
f 13/19/25 14/20/26 15/21/27 16/22/28
s 2
f 4/4/20 6/6/19 11/17/29 10/16/30
s off
f 18/23/31 17/24/32 19/25/33 20/26/34
s 3
f 5/5/24 3/3/23 9/15/35 12/18/36
s off
f 3/3/37 4/4/38 14/20/39 13/19/40
s 2
f 4/4/20 10/16/30 15/21/41 14/20/42
s 1
f 10/16/6 9/15/5 16/22/43 15/21/44
s 3
f 9/15/35 3/3/23 13/19/45 16/22/46
s off
f 6/6/47 5/5/48 17/24/49 18/23/50
s 3
f 5/5/24 12/18/36 19/25/51 17/24/52
s 1
f 12/18/8 11/17/7 20/26/53 19/25/54
s 2
f 11/17/29 6/6/19 18/23/55 20/26/56
